<?xml version="1.0" standalone="no"?>
<!DOCTYPE svg PUBLIC "-//W3C//DTD SVG 20010904//EN"
 "http://www.w3.org/TR/2001/REC-SVG-20010904/DTD/svg10.dtd">
<svg version="1.0" xmlns="http://www.w3.org/2000/svg"
 width="700.000000pt" height="700.000000pt" viewBox="0 0 700.000000 700.000000"
 preserveAspectRatio="xMidYMid meet">
<metadata>
Created by potrace 1.14, written by Peter Selinger 2001-2017
</metadata>
<g transform="translate(0.000000,700.000000) scale(0.100000,-0.100000)"
fill="#000000" stroke="none">
<path d="M3298 6995 c-1 -1 -46 -5 -99 -9 -53 -4 -104 -8 -115 -10 -10 -2 -41
-7 -69 -10 -51 -7 -171 -28 -260 -46 -87 -18 -286 -73 -281 -78 3 -2 25 -7 48
-9 173 -18 343 -103 471 -237 175 -182 283 -424 487 -1088 45 -145 99 -319
120 -388 21 -69 54 -177 74 -240 19 -63 65 -212 102 -330 36 -118 84 -272 105
-342 21 -71 57 -188 80 -260 22 -73 49 -161 60 -195 10 -35 28 -93 40 -130 11
-38 27 -88 34 -113 7 -25 43 -142 80 -260 37 -118 73 -235 80 -260 7 -25 34
-112 60 -195 26 -82 53 -172 62 -200 77 -257 272 -881 313 -1000 154 -446 271
-661 395 -725 88 -45 207 -32 414 47 76 29 95 33 103 22 20 -29 42 -86 52
-137 11 -52 11 -53 31 -35 11 10 33 28 49 41 148 114 405 382 541 562 27 36
52 67 55 70 3 3 10 12 15 21 6 9 40 62 77 117 292 437 497 995 553 1507 4 33
9 71 11 85 9 47 11 525 4 605 -15 155 -21 210 -25 225 -2 8 -7 35 -10 60 -8
59 -40 212 -70 330 -91 360 -274 760 -493 1080 -56 82 -184 251 -217 286 -5 7
-35 40 -65 74 -105 120 -292 296 -449 423 -429 347 -1054 620 -1606 703 -27 4
-57 9 -65 10 -8 2 -42 6 -76 9 -33 4 -74 9 -90 11 -33 5 -520 14 -526 9z"/>
<path d="M1535 6397 c-16 -13 -82 -62 -146 -110 -64 -48 -130 -99 -146 -114
-17 -16 -50 -44 -74 -64 -61 -51 -254 -248 -336 -344 -305 -358 -540 -788
-681 -1245 -38 -121 -90 -345 -106 -455 -2 -16 -8 -50 -12 -75 -21 -131 -29
-273 -29 -495 1 -197 6 -311 20 -412 10 -67 14 -99 20 -148 4 -27 10 -66 15
-85 5 -19 12 -48 14 -65 57 -320 240 -786 426 -1087 28 -44 50 -84 50 -89 0
-5 3 -9 8 -9 4 0 20 -21 37 -48 125 -200 373 -483 600 -683 28 -24 52 -47 55
-50 12 -13 193 -149 198 -149 4 0 16 21 26 48 20 48 51 115 161 353 35 75 80
172 100 215 61 131 326 717 337 743 5 14 22 54 38 89 17 35 30 65 30 67 0 2
15 36 34 77 53 114 86 188 86 193 0 2 13 32 29 67 16 35 75 171 131 303 56
132 113 264 126 293 13 29 24 55 24 57 0 2 11 28 24 57 13 29 72 164 130 300
58 135 114 266 125 290 11 24 45 102 77 173 31 72 85 191 119 266 l63 135
-174 565 c-194 633 -243 775 -319 935 -102 215 -194 328 -319 389 -127 63
-253 66 -444 11 -68 -20 -134 -36 -146 -36 -13 0 -35 11 -49 25 -24 25 -67
104 -67 125 0 16 -23 11 -55 -13z"/>
<path d="M3282 3680 c-5 -14 -17 -45 -25 -70 -9 -25 -41 -117 -72 -205 -67
-192 -115 -330 -228 -655 -47 -135 -112 -321 -145 -415 -33 -93 -94 -269 -137
-390 -42 -121 -90 -258 -107 -305 -17 -47 -37 -103 -44 -125 -59 -186 -370
-1048 -396 -1096 -22 -42 -44 -68 -66 -80 l-33 -17 109 -45 c175 -73 470 -169
597 -193 21 -4 34 -7 120 -24 62 -12 95 -17 154 -26 25 -3 57 -7 70 -10 197
-30 696 -25 908 10 21 4 54 9 73 11 19 3 46 7 60 10 14 3 41 8 60 11 77 13
282 68 399 106 126 41 359 132 373 146 4 4 -23 7 -60 6 -124 -1 -279 48 -400
126 -76 50 -170 136 -208 192 -16 24 -34 49 -41 56 -16 17 -122 231 -150 302
-40 102 -162 496 -203 655 -4 17 -34 122 -67 235 -33 113 -63 214 -66 225 -3
11 -19 65 -35 120 -38 124 -142 479 -152 520 -5 17 -35 122 -69 235 -33 113
-93 320 -134 460 -64 217 -76 251 -85 230z"/>
</g>
</svg>
